<?xml version="1.0" encoding="UTF-8" standalone="no"?>
<!-- Created with Inkscape (http://www.inkscape.org/) -->

<svg
   xmlns:dc="http://purl.org/dc/elements/1.1/"
   xmlns:cc="http://creativecommons.org/ns#"
   xmlns:rdf="http://www.w3.org/1999/02/22-rdf-syntax-ns#"
   xmlns:svg="http://www.w3.org/2000/svg"
   xmlns="http://www.w3.org/2000/svg"
   xmlns:sodipodi="http://sodipodi.sourceforge.net/DTD/sodipodi-0.dtd"
   xmlns:inkscape="http://www.inkscape.org/namespaces/inkscape"
   width="2500"
   height="2500"
   viewBox="0 0 661.45832 661.45836"
   version="1.1"
   id="svg8"
   inkscape:version="0.92.4 (5da689c313, 2019-01-14)"
   sodipodi:docname="NWA Cars and Trucks Logo.svg"
   inkscape:export-filename="C:\Users\ksdon\Desktop\NWALogoSquare.png"
   inkscape:export-xdpi="96"
   inkscape:export-ydpi="96">
  <defs
     id="defs2" />
  <sodipodi:namedview
     id="base"
     pagecolor="#ffffff"
     bordercolor="#666666"
     borderopacity="1.0"
     inkscape:pageopacity="0.0"
     inkscape:pageshadow="2"
     inkscape:zoom="0.40266876"
     inkscape:cx="1790.692"
     inkscape:cy="1078.3265"
     inkscape:document-units="px"
     inkscape:current-layer="layer1"
     showgrid="false"
     inkscape:window-width="3000"
     inkscape:window-height="1859"
     inkscape:window-x="-13"
     inkscape:window-y="-13"
     inkscape:window-maximized="1"
     units="px"
     fit-margin-top="0"
     fit-margin-left="0"
     fit-margin-right="0"
     fit-margin-bottom="0" />
  <metadata
     id="metadata5">
    <rdf:RDF>
      <cc:Work
         rdf:about="">
        <dc:format>image/svg+xml</dc:format>
        <dc:type
           rdf:resource="http://purl.org/dc/dcmitype/StillImage" />
        <dc:title></dc:title>
      </cc:Work>
    </rdf:RDF>
  </metadata>
  <g
     inkscape:label="Layer 1"
     inkscape:groupmode="layer"
     id="layer1"
     style="display:inline"
     transform="translate(106.20939,256.10487)">
    <g
       id="g4653"
       transform="translate(14.50878)" />
    <rect
       style="opacity:1;fill:#f2f6f1;fill-opacity:0.92156863;stroke-width:2.64583349;stroke-miterlimit:4;stroke-dasharray:none"
       id="rect5148"
       width="664.30225"
       height="665.61639"
       x="-106.86646"
       y="-256.97754" />
    <g
       id="g5146"
       transform="matrix(0.83564049,0,0,0.83564049,-14.460962,-10.33182)">
      <path
         sodipodi:nodetypes="ccccc"
         inkscape:connector-curvature="0"
         id="path4775-2"
         d="m 488.96373,-144.41321 -21.54462,1.32294 -0.18899,5.19716 21.45548,-1.77356 z"
         style="display:inline;fill:#b7bec8;fill-opacity:1;stroke:#000000;stroke-width:0.26458332px;stroke-linecap:butt;stroke-linejoin:miter;stroke-opacity:1"
         transform="translate(-9.3497485e-7,1.2878599e-6)" />
      <path
         sodipodi:nodetypes="ccccc"
         inkscape:connector-curvature="0"
         id="path4775"
         d="m 109.16475,-144.41321 21.54462,1.32294 0.18899,5.19716 -21.45548,-1.77356 z"
         style="display:inline;fill:#b7bec8;fill-opacity:1;stroke:#000000;stroke-width:0.26458332px;stroke-linecap:butt;stroke-linejoin:miter;stroke-opacity:1"
         transform="translate(-9.3497485e-7,1.2878599e-6)" />
      <path
         sodipodi:nodetypes="ssassas"
         inkscape:connector-curvature="0"
         id="path4688"
         d="M 147.34865,-17.069827 125.01007,-171.60534 c -3.73575,-25.84344 113.68382,-15.90642 170.8635,-15.31264 59.39725,0.61681 181.36093,-10.3616 177.12142,19.58895 L 451.13723,-12.91209 C 441.97537,51.813031 350.81207,-63.229571 296.5971,-63.628453 244.48453,-64.011868 155.61375,40.10706 147.34865,-17.069827 Z"
         style="fill:#d5f6ff;fill-opacity:0.92182408;stroke:#000000;stroke-width:0.26458332px;stroke-linecap:butt;stroke-linejoin:miter;stroke-opacity:1" />
      <ellipse
         transform="scale(-1,1)"
         ry="60.302437"
         rx="32.339611"
         cy="249.80261"
         cx="-551.80823"
         id="path4974-9-2"
         style="display:inline;opacity:1;fill:#9ea5a4;fill-opacity:1;stroke-width:2.21607161;stroke-miterlimit:4;stroke-dasharray:none" />
      <ellipse
         transform="matrix(-0.99999999,0,0,0.99999999,-9.3497485e-7,1.2878599e-6)"
         ry="66.282845"
         rx="35.546844"
         cy="249.80261"
         cx="-537.91016"
         id="path4974-9"
         style="display:inline;opacity:1;fill:#000000;fill-opacity:1;stroke-width:2.43584728;stroke-miterlimit:4;stroke-dasharray:none" />
      <path
         sodipodi:nodetypes="aaaaaa"
         inkscape:connector-curvature="0"
         id="path4692-0"
         d="m 561.09746,93.931323 c -14.74965,-22.07591 -57.57694,0.353263 -77.65164,17.728657 -39.00056,33.75644 -85.16422,102.00899 -55.72141,144.36063 12.78535,18.39092 50.24293,13.801 67.19009,-0.8443 22.39292,-19.35138 2.78582,-60.28124 13.97287,-87.68139 11.36601,-27.83846 68.91495,-48.56132 52.21009,-73.563597 z"
         style="fill:#9ea5a4;fill-opacity:1;stroke:#000000;stroke-width:0.26924917px;stroke-linecap:butt;stroke-linejoin:miter;stroke-opacity:1" />
      <path
         sodipodi:nodetypes="caacccc"
         inkscape:connector-curvature="0"
         id="path4667-8"
         d="m 374.92619,245.0706 c 0,0 37.68864,-34.04576 49.18479,-56.09787 12.15104,-23.30834 14.3997,-50.66488 18.8425,-76.57218 5.28849,-30.838744 9.2208,-93.412764 9.2208,-93.412764 L 395.33994,-42.926596 V 62.721965 Z"
         style="display:inline;fill:#9ea5a4;fill-opacity:1;stroke:#000000;stroke-width:0.26252866px;stroke-linecap:butt;stroke-linejoin:miter;stroke-opacity:1" />
      <ellipse
         transform="scale(-1,1)"
         ry="60.302437"
         rx="32.339611"
         cy="252.47528"
         cx="-21.010914"
         id="path4974-9-2-0"
         style="display:inline;opacity:1;fill:#9ea5a4;fill-opacity:1;stroke-width:2.21607161;stroke-miterlimit:4;stroke-dasharray:none" />
      <path
         sodipodi:nodetypes="aaasaa"
         inkscape:connector-curvature="0"
         id="path4692"
         d="m -19.858825,117.86205 c 9.54015,-34.082103 75.875901,-19.745945 104.383021,0.5747 42.562694,30.33982 91.426384,111.97384 54.166324,148.84692 C 122.59447,283.21254 82.788948,263.47769 76.261204,241.60748 67.831997,213.36672 60.057369,178.91944 39.949826,155.21746 24.659738,137.1941 -26.270861,140.76899 -19.858825,117.86205 Z"
         style="fill:#9ea5a4;fill-opacity:1;stroke:#000000;stroke-width:0.28185916px;stroke-linecap:butt;stroke-linejoin:miter;stroke-opacity:1" />
      <path
         sodipodi:nodetypes="aaaaasaaaaaaaaaaaa"
         inkscape:connector-curvature="0"
         id="path4719"
         d="m 2.3865339,103.7285 c -26.5365679,0.16377 -48.4043529,27.29602 -61.7733629,50.2195 -17.132954,29.37741 -17.806838,66.59338 -17.034745,100.593 0.82571,36.36066 3.860187,75.76525 23.082363,106.6406 12.527467,20.12207 32.023696,44.39081 55.7257449,44.1719 C 30.598882,405.09293 56.743448,377.54475 67.733981,351.5599 80.464515,321.46117 82.423588,287.16727 81.194642,254.541 79.825649,218.19674 77.334454,178.77575 58.112278,147.9004 45.584811,127.77833 26.089142,103.58222 2.3865339,103.7285 Z m 21.9223981,50.0344 c 10.513865,-0.34512 18.823644,11.16362 24.284302,20.15482 14.274658,23.50382 16.973593,53.12908 17.482214,80.62338 0.457713,24.74241 -3.179816,50.38786 -13.038215,73.08606 -5.693086,13.10789 -11.494697,32.79248 -25.704492,34.31226 C 12.910647,363.48191 1.5113959,346.09973 -5.5307088,333.41963 -18.657921,309.78262 -18.563493,280.35158 -18.282477,253.31544 c 0.251444,-24.19101 1.39356,-50.13957 12.8972008,-71.42183 6.4832869,-11.99438 16.0671022,-27.6834 29.6942082,-28.13071 z"
         style="opacity:1;fill:#000000;fill-opacity:1;stroke-width:0.3461915" />
      <path
         sodipodi:nodetypes="caacccc"
         inkscape:connector-curvature="0"
         id="path4667"
         d="m 213.83075,242.13597 c 0,0 -30.4207,-14.11131 -39.65174,-27.21856 -19.86521,-28.20685 -20.3134,-66.1175 -26.40202,-100.07603 -5.60786,-31.277135 -9.2208,-94.880671 -9.2208,-94.880671 l 56.83434,-62.887305 V 64.382132 Z"
         style="display:inline;fill:#9ea5a4;fill-opacity:1;stroke:#000000;stroke-width:0.26458332px;stroke-linecap:butt;stroke-linejoin:miter;stroke-opacity:1" />
      <path
         sodipodi:nodetypes="cccccccc"
         inkscape:connector-curvature="0"
         id="path4655"
         d="m 195.88429,-55.543716 c 17.53033,-11.883538 33.56321,-27.36173 54.5338,-32.458483 19.83568,-5.13084 66.10689,-5.063101 86.3697,0 30.23317,5.537115 35.62802,10.93095 59.04591,32.458483 l -0.75595,286.630576 c -20.41375,23.17634 -64.41627,38.96304 -101.20764,39.58556 -30.48813,0.28316 -90.37028,-17.97177 -98.74177,-39.97875 z"
         style="display:inline;fill:#b7bec8;fill-opacity:1;stroke:#000000;stroke-width:0.26985332px;stroke-linecap:butt;stroke-linejoin:miter;stroke-opacity:1" />
      <circle
         r="56.507439"
         cy="23.928514"
         cx="457.81476"
         id="path4593-2-1"
         style="opacity:1;fill:#b7bec8;fill-opacity:1;stroke-width:0.26458332" />
      <circle
         r="47.247017"
         cy="23.928514"
         cx="457.81476"
         id="path4593-9-4-9"
         style="display:inline;opacity:1;fill:#d6f6ff;fill-opacity:0.92156863;stroke-width:0.2212235" />
      <path
         sodipodi:nodetypes="aaaaasaaaaaaaaaaaa"
         inkscape:connector-curvature="0"
         id="path4719-8"
         d="m 569.82737,103.7285 c 26.53657,0.16377 48.40435,27.29602 61.77336,50.2195 17.13295,29.37741 17.80684,66.59338 17.03475,100.593 -0.82571,36.36066 -3.86018,75.76525 -23.08236,106.6406 -12.52747,20.12207 -32.0237,44.39081 -55.72575,44.1719 -28.21235,-0.26057 -54.83065,-27.61343 -65.34745,-53.7936 -11.66146,-29.02965 -14.68961,-64.39263 -13.46066,-97.0189 1.36899,-36.34426 3.86019,-75.76525 23.08237,-106.6406 12.52747,-20.12207 32.02313,-44.31818 55.72574,-44.1719 z m -21.9224,50.0344 c -10.51386,-0.34512 -18.82364,11.16362 -24.2843,20.15482 -14.27466,23.50382 -16.97359,53.12908 -17.48221,80.62338 -0.45771,24.74241 3.17981,50.38786 13.03821,73.08606 5.69309,13.10789 11.4947,32.79248 25.7045,34.31226 14.42209,1.54249 25.82134,-15.8397 32.86344,-28.51979 13.12721,-23.63701 13.03279,-53.06805 12.75177,-80.10419 -0.25144,-24.19101 -1.39356,-50.13957 -12.8972,-71.42183 -6.48329,-11.99438 -16.0671,-27.6834 -29.69421,-28.13071 z"
         style="display:inline;opacity:1;fill:#000000;fill-opacity:1;stroke-width:0.3461915" />
      <path
         sodipodi:nodetypes="aaaaaaasa"
         inkscape:connector-curvature="0"
         id="path4690-0"
         d="m 398.36375,207.29363 c 35.05549,-39.46684 54.4175,-94.26634 97.46755,-124.814861 17.89752,-12.700161 40.48633,-19.332687 62.35962,-21.114301 23.94064,-1.950002 50.72247,-0.966867 71.0937,11.759859 22.43262,14.014564 59.18732,41.767593 45.97036,64.679213 -27.63238,47.90076 -116.22863,-41.241121 -165.17257,-15.50162 -42.0768,22.12808 -29.07522,99.51267 -69.49008,124.5476 -24.46319,15.15369 -78.05109,13.41654 -86.2326,4.08332 -13.6174,-15.53431 30.28538,-28.19423 44.00402,-43.63921 z"
         style="fill:#b7bec8;fill-opacity:1;stroke:#000000;stroke-width:0.26458332px;stroke-linecap:butt;stroke-linejoin:miter;stroke-opacity:1" />
      <path
         sodipodi:nodetypes="aaaaaaaaa"
         inkscape:connector-curvature="0"
         id="path4690"
         d="M 173.60648,207.29363 C 138.55099,167.82679 119.18898,113.02729 76.138929,82.478769 58.241414,69.778608 35.652601,63.146082 13.779307,61.364468 -10.161326,59.414466 -36.943162,60.397601 -57.314388,73.124327 -79.74701,87.138891 -116.50171,114.89192 -103.28475,137.80354 -75.65237,185.7043 12.943882,96.562419 61.887822,122.30192 103.96462,144.43 90.963041,221.81459 131.3779,246.84952 c 24.46319,15.15369 74.6493,30.42547 86.2326,4.08332 8.31537,-18.91039 -30.28538,-28.19423 -44.00402,-43.63921 z"
         style="fill:#b7bec8;fill-opacity:1;stroke:#000000;stroke-width:0.26458332px;stroke-linecap:butt;stroke-linejoin:miter;stroke-opacity:1" />
      <rect
         y="-16.59947"
         x="215.6123"
         height="236.99107"
         width="158.75"
         id="rect4858"
         style="opacity:1;fill:#9ea5a4;fill-opacity:1;stroke-width:0.25166896" />
      <g
         transform="translate(-6.3500003,21.166674)"
         id="g4972">
        <path
           style="opacity:0.36000001;fill:none;stroke:#000000;stroke-width:2.64583325;stroke-linecap:butt;stroke-linejoin:miter;stroke-miterlimit:4;stroke-dasharray:none;stroke-opacity:1"
           d="M 221.87395,-23.64961 H 379.11204"
           id="path4862"
           inkscape:connector-curvature="0" />
        <path
           style="display:inline;opacity:0.36000001;fill:none;stroke:#000000;stroke-width:2.64583325;stroke-linecap:butt;stroke-linejoin:miter;stroke-miterlimit:4;stroke-dasharray:none;stroke-opacity:1"
           d="M 221.87395,-9.0165236 H 379.11204"
           id="path4862-8"
           inkscape:connector-curvature="0" />
        <path
           style="display:inline;opacity:0.36000001;fill:none;stroke:#000000;stroke-width:2.64583325;stroke-linecap:butt;stroke-linejoin:miter;stroke-miterlimit:4;stroke-dasharray:none;stroke-opacity:1"
           d="M 221.87395,34.882735 H 379.11204"
           id="path4862-0"
           inkscape:connector-curvature="0" />
        <path
           style="display:inline;opacity:0.36000001;fill:none;stroke:#000000;stroke-width:2.64583325;stroke-linecap:butt;stroke-linejoin:miter;stroke-miterlimit:4;stroke-dasharray:none;stroke-opacity:1"
           d="M 221.87395,93.41508 H 379.11204"
           id="path4862-5"
           inkscape:connector-curvature="0" />
        <path
           style="display:inline;opacity:0.36000001;fill:none;stroke:#000000;stroke-width:2.64583325;stroke-linecap:butt;stroke-linejoin:miter;stroke-miterlimit:4;stroke-dasharray:none;stroke-opacity:1"
           d="M 221.87395,166.58051 H 379.11204"
           id="path4862-4"
           inkscape:connector-curvature="0" />
        <path
           style="display:inline;opacity:0.36000001;fill:none;stroke:#000000;stroke-width:2.64583325;stroke-linecap:butt;stroke-linejoin:miter;stroke-miterlimit:4;stroke-dasharray:none;stroke-opacity:1"
           d="M 221.87395,181.2136 H 379.11204"
           id="path4862-85"
           inkscape:connector-curvature="0" />
        <path
           style="display:inline;opacity:0.36000001;fill:none;stroke:#000000;stroke-width:2.64583325;stroke-linecap:butt;stroke-linejoin:miter;stroke-miterlimit:4;stroke-dasharray:none;stroke-opacity:1"
           d="M 221.87395,151.94743 H 379.11204"
           id="path4862-7"
           inkscape:connector-curvature="0" />
        <path
           style="display:inline;opacity:0.36000001;fill:none;stroke:#000000;stroke-width:2.64583325;stroke-linecap:butt;stroke-linejoin:miter;stroke-miterlimit:4;stroke-dasharray:none;stroke-opacity:1"
           d="M 221.87395,137.31434 H 379.11204"
           id="path4862-2"
           inkscape:connector-curvature="0" />
        <path
           style="display:inline;opacity:0.36000001;fill:none;stroke:#000000;stroke-width:2.64583325;stroke-linecap:butt;stroke-linejoin:miter;stroke-miterlimit:4;stroke-dasharray:none;stroke-opacity:1"
           d="M 221.87395,122.68125 H 379.11204"
           id="path4862-9"
           inkscape:connector-curvature="0" />
        <path
           style="display:inline;opacity:0.36000001;fill:none;stroke:#000000;stroke-width:2.64583325;stroke-linecap:butt;stroke-linejoin:miter;stroke-miterlimit:4;stroke-dasharray:none;stroke-opacity:1"
           d="M 221.87395,108.04817 H 379.11204"
           id="path4862-73"
           inkscape:connector-curvature="0" />
        <path
           style="display:inline;opacity:0.36000001;fill:none;stroke:#000000;stroke-width:2.64583325;stroke-linecap:butt;stroke-linejoin:miter;stroke-miterlimit:4;stroke-dasharray:none;stroke-opacity:1"
           d="M 221.87395,78.781994 H 379.11204"
           id="path4862-29"
           inkscape:connector-curvature="0" />
        <path
           style="display:inline;opacity:0.36000001;fill:none;stroke:#000000;stroke-width:2.64583325;stroke-linecap:butt;stroke-linejoin:miter;stroke-miterlimit:4;stroke-dasharray:none;stroke-opacity:1"
           d="M 221.87395,64.148908 H 379.11204"
           id="path4862-56"
           inkscape:connector-curvature="0" />
        <path
           style="display:inline;opacity:0.36000001;fill:none;stroke:#000000;stroke-width:2.64583325;stroke-linecap:butt;stroke-linejoin:miter;stroke-miterlimit:4;stroke-dasharray:none;stroke-opacity:1"
           d="M 221.87395,49.515821 H 379.11204"
           id="path4862-89"
           inkscape:connector-curvature="0" />
        <path
           style="display:inline;opacity:0.36000001;fill:none;stroke:#000000;stroke-width:2.64583325;stroke-linecap:butt;stroke-linejoin:miter;stroke-miterlimit:4;stroke-dasharray:none;stroke-opacity:1"
           d="M 221.87395,20.249649 H 379.11204"
           id="path4862-1"
           inkscape:connector-curvature="0" />
        <path
           style="display:inline;opacity:0.36000001;fill:none;stroke:#000000;stroke-width:2.64583325;stroke-linecap:butt;stroke-linejoin:miter;stroke-miterlimit:4;stroke-dasharray:none;stroke-opacity:1"
           d="M 221.87395,5.6165626 H 379.11204"
           id="path4862-07"
           inkscape:connector-curvature="0" />
      </g>
      <ellipse
         ry="66.282845"
         rx="35.546844"
         cy="252.47528"
         cx="36.779819"
         id="path4974"
         style="opacity:1;fill:#000000;fill-opacity:1;stroke-width:2.43584728;stroke-miterlimit:4;stroke-dasharray:none" />
      <path
         sodipodi:nodetypes="scccsscccss"
         inkscape:connector-curvature="0"
         id="path21-6"
         d="m -96.931186,234.48836 c 34.678227,0.20046 207.225466,0 207.225466,0 H 280.57252 529.429 c 0,0 119.52015,-0.25764 142.91586,0 7.56343,0.0833 7.56343,-22.60791 0,-22.69168 -24.99933,-0.2769 -142.91586,0 -142.91586,0 H 278.49368 110.29428 c 0,0 -174.017221,-0.20046 -207.225466,0 -7.563754,0.0457 -7.563764,22.64796 0,22.69168 z"
         style="opacity:1;fill:#dbe3e2;fill-opacity:1;stroke:#000000;stroke-width:0.26458332px;stroke-linecap:butt;stroke-linejoin:miter;stroke-opacity:1" />
      <circle
         r="56.507439"
         cy="19.061493"
         cx="133.14738"
         id="path4593-2"
         style="opacity:1;fill:#b7bec8;fill-opacity:1;stroke-width:0.26458332" />
      <circle
         r="47.247017"
         cy="19.061493"
         cx="133.14738"
         id="path4593-9-4"
         style="display:inline;opacity:1;fill:#d6f6ff;fill-opacity:0.92156863;stroke-width:0.2212235" />
      <path
         sodipodi:nodetypes="ssaassaaass"
         inkscape:connector-curvature="0"
         id="path4587"
         d="M 69.869899,92.688149 C 88.644754,83.067984 111.36481,80.389615 121.36589,78.412368 150.86943,72.579421 225.99551,65.606718 278.54057,66.22844 c 58.73835,0.695002 117.97694,5.067533 175.32881,17.773438 19.18008,4.249213 48.46246,12.513959 55.65888,19.377052 2.66525,2.5418 12.28391,-3.647789 9.35443,-5.879942 C 506.57559,88.121435 476.24314,80.317826 453.86938,75.582889 396.45015,63.431319 337.22695,60.145823 278.54057,59.413091 225.63353,58.752517 172.45253,61.951658 120.16318,70.039583 c -19.9111,3.079775 -46.597003,6.914103 -58.71227,14.363191 -3.354102,2.062274 4.914834,10.080891 8.418989,8.285375 z"
         style="display:inline;fill:#9ea5a4;fill-opacity:1;stroke:#000000;stroke-width:0.26458332px;stroke-linecap:butt;stroke-linejoin:miter;stroke-opacity:1" />
      <path
         sodipodi:nodetypes="scccsscccss"
         inkscape:connector-curvature="0"
         id="path21-6-3"
         d="m -96.931182,268.70082 c 34.678229,0.20046 207.225462,0 207.225462,0 H 280.57252 529.429 c 0,0 119.52011,-0.25764 142.91581,0 7.5635,0.0833 7.5635,-22.60791 0,-22.69168 -24.9993,-0.2769 -142.91581,0 -142.91581,0 H 278.49369 110.29428 c 0,0 -174.017213,-0.20046 -207.225462,0 -7.563748,0.0457 -7.563758,22.64796 0,22.69168 z"
         style="display:inline;opacity:1;fill:#dbe3e2;fill-opacity:1;stroke:#000000;stroke-width:0.26458332px;stroke-linecap:butt;stroke-linejoin:miter;stroke-opacity:1" />
      <path
         style="display:inline;opacity:1;fill:#9ea5a4;fill-opacity:1;stroke:#000000;stroke-width:0.26458332px;stroke-linecap:butt;stroke-linejoin:miter;stroke-opacity:1"
         d="m -14.765775,214.24602 c 8.3462448,-0.30086 11.9255728,13.17472 13.98511881,20.78868 2.09828599,10.06437 -1.76526001,29.49072 -12.66411181,29.92278 -8.846968,0.23156 -13.045526,-20.93084 -13.227257,-29.92278 1.389907,-11.52671 3.925834,-20.50102 11.90625,-20.78868 z"
         id="path4549"
         inkscape:connector-curvature="0"
         sodipodi:nodetypes="accca" />
      <path
         style="display:inline;opacity:1;fill:#9ea5a4;fill-opacity:1;stroke:#000000;stroke-width:0.26458332px;stroke-linecap:butt;stroke-linejoin:miter;stroke-opacity:1"
         d="m 286.93265,225.70806 c 7.35158,0.17024 10.20999,12.51244 9.63839,19.84374 -0.43742,5.6103 -4.0409,14.41869 -9.6403,13.85879 -6.78457,-0.6784 -8.43133,-11.96099 -8.12458,-18.77248 0.25491,-5.6604 2.46186,-15.06123 8.12649,-14.93005 z"
         id="path4549-8"
         inkscape:connector-curvature="0"
         sodipodi:nodetypes="aaaaa" />
      <path
         style="display:inline;opacity:1;fill:#9ea5a4;fill-opacity:1;stroke:#000000;stroke-width:0.26458332px;stroke-linecap:butt;stroke-linejoin:miter;stroke-opacity:1"
         d="m 589.76194,214.24602 c -8.34624,-0.30086 -11.92557,13.17472 -13.98511,20.78868 -2.09829,10.06437 1.00931,31.00262 11.90816,31.43468 8.84696,0.23156 13.80147,-22.44274 13.9832,-31.43468 -1.3899,-11.52671 -3.92583,-20.50102 -11.90625,-20.78868 z"
         id="path4549-6"
         inkscape:connector-curvature="0"
         sodipodi:nodetypes="accca" />
      <path
         sodipodi:nodetypes="aaaaa"
         inkscape:connector-curvature="0"
         id="path4757"
         d="m 110.67665,-142.71231 c 0.0518,10.13011 -11.304363,21.49256 -21.434471,21.54436 -10.130107,0.0518 -21.550084,-11.1943 -21.653692,-21.32401 -0.103608,-10.12971 11.083291,-21.65885 21.213003,-21.76246 10.233315,-0.10467 21.82283,11.30839 21.87516,21.54211 z"
         style="display:inline;opacity:1;fill:#9ea5a4;fill-opacity:1;stroke-width:0.26458332"
         transform="translate(-9.3497485e-7,1.2878599e-6)" />
      <path
         sodipodi:nodetypes="aaaaa"
         inkscape:connector-curvature="0"
         id="path4757-5"
         d="m 529.096,-141.95636 c 0.0518,10.13011 -11.30436,21.49255 -21.43447,21.54435 -10.13011,0.0518 -21.55009,-11.19429 -21.6537,-21.324 -0.1036,-10.12971 11.0833,-21.65885 21.21301,-21.76246 10.23331,-0.10467 21.82283,11.30839 21.87516,21.54211 z"
         style="display:inline;opacity:1;fill:#9ea5a4;fill-opacity:1;stroke-width:0.26458332"
         transform="translate(-9.3497485e-7,1.2878599e-6)" />
      <path
         sodipodi:nodetypes="ssasssssss"
         inkscape:connector-curvature="0"
         id="path4686"
         d="m 233.78992,1.5091685 c 32.21332,-0.2995499 305.62874,-0.2372033 339.4323,-0.5237933 9.33668,-0.0791573 16.39218,15.6773858 18.70887,26.1386868 1.25429,5.663891 2.59167,16.94586 -3.20726,17.10525 -9.81592,0.26981 -7.80868,-15.33197 -15.50161,-15.50164 -103.83756,-2.29012 -257.85895,-0.205753 -338.29837,0 -7.44311,0.01904 -1.54083,15.94435 -12.35925,15.50164 -0.11802,-0.005 -0.22562,-0.0636 -0.33438,-0.10008 -6.05743,-2.02862 -3.79148,-13.47639 -2.12247,-19.83999 1.94901,-7.43113 5.63282,-22.705223 13.68217,-22.7800735 z"
         style="fill:#b7bec8;fill-opacity:1;stroke:#000000;stroke-width:0.26458332px;stroke-linecap:butt;stroke-linejoin:miter;stroke-opacity:1"
         transform="translate(-106.20939,-202.87601)" />
      <g
         id="g5083">
        <ellipse
           style="display:inline;opacity:1;fill:#f2f6f1;fill-opacity:0.92156863;stroke-width:2.64583349;stroke-miterlimit:4;stroke-dasharray:none"
           id="path5050"
           cx="459.94482"
           cy="21.08601"
           rx="16.668751"
           ry="15.41198" />
        <path
           style="display:inline;fill:none;stroke:#000000;stroke-width:0.26458335px;stroke-linecap:butt;stroke-linejoin:miter;stroke-opacity:1"
           d="m 410.16556,28.577682 94.60117,0.264583"
           id="path5052"
           inkscape:connector-curvature="0"
           sodipodi:nodetypes="cc" />
        <path
           style="display:inline;fill:none;stroke:#000000;stroke-width:0.26458335px;stroke-linecap:butt;stroke-linejoin:miter;stroke-opacity:1"
           d="m 416.21109,1.7224735 c 24.78413,20.6257815 61.94122,22.0437645 84.40209,0.264583"
           id="path5054"
           inkscape:connector-curvature="0"
           sodipodi:nodetypes="cc" />
      </g>
      <ellipse
         ry="15.41198"
         rx="16.668751"
         cy="21.086014"
         cx="135.55569"
         id="path5050-1"
         style="display:inline;opacity:1;fill:#f2f6f1;fill-opacity:0.92156863;stroke-width:2.64583325;stroke-miterlimit:4;stroke-dasharray:none" />
      <path
         sodipodi:nodetypes="cc"
         inkscape:connector-curvature="0"
         id="path5052-8"
         d="m 85.776435,28.577673 94.601165,0.26459"
         style="display:inline;fill:none;stroke:#000000;stroke-width:0.26458335px;stroke-linecap:butt;stroke-linejoin:miter;stroke-opacity:1" />
      <path
         sodipodi:nodetypes="cc"
         inkscape:connector-curvature="0"
         id="path5054-6"
         d="M 89.308423,0.53184846 C 114.09254,21.157628 154.16005,22.178733 176.62092,0.39955346"
         style="display:inline;fill:none;stroke:#000000;stroke-width:0.26458335px;stroke-linecap:butt;stroke-linejoin:miter;stroke-opacity:1" />
    </g>
  </g>
</svg>
